<svg width="23" height="23" viewBox="0 0 23 23" fill="none" xmlns="http://www.w3.org/2000/svg">
<path d="M0 21.7999C-6.2108e-05 22.3522 0.447603 22.7999 0.999888 22.8C1.55217 22.8001 1.99994 22.3524 2 21.8001L0 21.7999ZM1.00044 17.8996L2.00044 17.8997L1.00044 17.8996ZM12.05 15C12.6023 15 13.05 14.5523 13.05 14C13.05 13.4477 12.6023 13 12.05 13V15ZM21.8 16.3C22.3523 16.3 22.8 15.8523 22.8 15.3C22.8 14.7477 22.3523 14.3 21.8 14.3V16.3ZM15.95 14.3C15.3977 14.3 14.95 14.7477 14.95 15.3C14.95 15.8523 15.3977 16.3 15.95 16.3V14.3ZM17.875 18.2249C17.875 18.7771 18.3227 19.2249 18.875 19.2249C19.4273 19.2249 19.875 18.7771 19.875 18.2249H17.875ZM19.875 12.3749C19.875 11.8226 19.4273 11.3749 18.875 11.3749C18.3227 11.3749 17.875 11.8226 17.875 12.3749H19.875ZM13 4.9C13 6.50163 11.7016 7.8 10.1 7.8V9.8C12.8062 9.8 15 7.6062 15 4.9H13ZM10.1 7.8C8.49837 7.8 7.2 6.50163 7.2 4.9H5.2C5.2 7.6062 7.3938 9.8 10.1 9.8V7.8ZM7.2 4.9C7.2 3.29837 8.49837 2 10.1 2V0C7.3938 0 5.2 2.19381 5.2 4.9H7.2ZM10.1 2C11.7016 2 13 3.29837 13 4.9H15C15 2.1938 12.8062 0 10.1 0V2ZM2 21.8001L2.00044 17.8997L0.000438452 17.8995L0 21.7999L2 21.8001ZM4.90044 13C2.19446 13 0.000742614 15.1935 0.000438452 17.8995L2.00044 17.8997C2.00062 16.2982 3.29894 15 4.90044 15V13ZM4.90044 15H12.05V13H4.90044V15ZM21.8 14.3H18.875V16.3H21.8V14.3ZM18.875 14.3H15.95V16.3H18.875V14.3ZM19.875 18.2249V15.3H17.875V18.2249H19.875ZM19.875 15.3V12.3749H17.875V15.3H19.875Z" fill="#01215B"/>
</svg>
