<svg width="122" height="13" viewBox="0 0 122 13" fill="none" xmlns="http://www.w3.org/2000/svg">
<path d="M4.017 10.104C3.32367 10.104 2.66067 10 2.028 9.792C1.39533 9.57533 0.897 9.298 0.533 8.96L1.014 7.946C1.36067 8.24933 1.80267 8.50067 2.34 8.7C2.87733 8.89933 3.43633 8.999 4.017 8.999C4.54567 8.999 4.97467 8.93833 5.304 8.817C5.63333 8.69567 5.876 8.531 6.032 8.323C6.188 8.10633 6.266 7.86367 6.266 7.595C6.266 7.283 6.162 7.03167 5.954 6.841C5.75467 6.65033 5.49033 6.49867 5.161 6.386C4.84033 6.26467 4.485 6.16067 4.095 6.074C3.705 5.98733 3.31067 5.88767 2.912 5.775C2.522 5.65367 2.16233 5.502 1.833 5.32C1.51233 5.138 1.25233 4.89533 1.053 4.592C0.853667 4.28 0.754 3.88133 0.754 3.396C0.754 2.928 0.875333 2.499 1.118 2.109C1.36933 1.71033 1.75067 1.394 2.262 1.16C2.782 0.917333 3.44067 0.796 4.238 0.796C4.76667 0.796 5.291 0.865333 5.811 1.004C6.331 1.14267 6.78167 1.342 7.163 1.602L6.734 2.642C6.344 2.382 5.93233 2.19567 5.499 2.083C5.06567 1.96167 4.64533 1.901 4.238 1.901C3.72667 1.901 3.30633 1.966 2.977 2.096C2.64767 2.226 2.405 2.39933 2.249 2.616C2.10167 2.83267 2.028 3.07533 2.028 3.344C2.028 3.66467 2.12767 3.92033 2.327 4.111C2.535 4.30167 2.79933 4.45333 3.12 4.566C3.44933 4.67867 3.809 4.78267 4.199 4.878C4.589 4.96467 4.979 5.06433 5.369 5.177C5.76767 5.28967 6.12733 5.437 6.448 5.619C6.77733 5.801 7.04167 6.04367 7.241 6.347C7.44033 6.65033 7.54 7.04033 7.54 7.517C7.54 7.97633 7.41433 8.40533 7.163 8.804C6.91167 9.194 6.52167 9.51033 5.993 9.753C5.473 9.987 4.81433 10.104 4.017 10.104ZM12.9362 3.045C13.4996 3.045 13.9936 3.15333 14.4182 3.37C14.8516 3.58667 15.1896 3.916 15.4322 4.358C15.6749 4.8 15.7962 5.359 15.7962 6.035V10H14.5482V6.178C14.5482 5.51067 14.3836 5.008 14.0542 4.67C13.7336 4.332 13.2786 4.163 12.6892 4.163C12.2472 4.163 11.8616 4.24967 11.5322 4.423C11.2029 4.59633 10.9472 4.852 10.7652 5.19C10.5919 5.528 10.5052 5.94833 10.5052 6.451V10H9.25722V0.353999H10.5052V4.969L10.2582 4.475C10.4836 4.02433 10.8302 3.67333 11.2982 3.422C11.7662 3.17067 12.3122 3.045 12.9362 3.045ZM21.0569 10.078C20.3635 10.078 19.7482 9.92633 19.2109 9.623C18.6735 9.31967 18.2489 8.90367 17.9369 8.375C17.6249 7.83767 17.4689 7.231 17.4689 6.555C17.4689 5.87033 17.6249 5.26367 17.9369 4.735C18.2489 4.20633 18.6735 3.79467 19.2109 3.5C19.7482 3.19667 20.3635 3.045 21.0569 3.045C21.7415 3.045 22.3525 3.19667 22.8899 3.5C23.4359 3.79467 23.8605 4.20633 24.1639 4.735C24.4759 5.255 24.6319 5.86167 24.6319 6.555C24.6319 7.23967 24.4759 7.84633 24.1639 8.375C23.8605 8.90367 23.4359 9.31967 22.8899 9.623C22.3525 9.92633 21.7415 10.078 21.0569 10.078ZM21.0569 8.986C21.4989 8.986 21.8932 8.88633 22.2399 8.687C22.5952 8.48767 22.8725 8.206 23.0719 7.842C23.2712 7.46933 23.3709 7.04033 23.3709 6.555C23.3709 6.061 23.2712 5.63633 23.0719 5.281C22.8725 4.917 22.5952 4.63533 22.2399 4.436C21.8932 4.23667 21.4989 4.137 21.0569 4.137C20.6149 4.137 20.2205 4.23667 19.8739 4.436C19.5272 4.63533 19.2499 4.917 19.0419 5.281C18.8339 5.63633 18.7299 6.061 18.7299 6.555C18.7299 7.04033 18.8339 7.46933 19.0419 7.842C19.2499 8.206 19.5272 8.48767 19.8739 8.687C20.2205 8.88633 20.6149 8.986 21.0569 8.986ZM27.6234 10L25.0624 3.11H26.2454L28.5204 9.35H27.9614L30.3274 3.11H31.3804L33.6944 9.35H33.1484L35.4754 3.11H36.5934L34.0194 10H32.8234L30.6524 4.306H31.0164L28.8194 10H27.6234ZM37.8598 10V3.11H39.1078V10H37.8598ZM38.4838 1.784C38.2411 1.784 38.0374 1.706 37.8728 1.55C37.7168 1.394 37.6388 1.20333 37.6388 0.978C37.6388 0.744 37.7168 0.549 37.8728 0.393C38.0374 0.237 38.2411 0.159 38.4838 0.159C38.7264 0.159 38.9258 0.237 39.0818 0.393C39.2464 0.540333 39.3288 0.726666 39.3288 0.951999C39.3288 1.186 39.2508 1.38533 39.0948 1.55C38.9388 1.706 38.7351 1.784 38.4838 1.784ZM45.1696 3.045C45.733 3.045 46.227 3.15333 46.6516 3.37C47.085 3.58667 47.423 3.916 47.6656 4.358C47.9083 4.8 48.0296 5.359 48.0296 6.035V10H46.7816V6.178C46.7816 5.51067 46.617 5.008 46.2876 4.67C45.967 4.332 45.512 4.163 44.9226 4.163C44.4806 4.163 44.095 4.24967 43.7656 4.423C43.4363 4.59633 43.1806 4.852 42.9986 5.19C42.8253 5.528 42.7386 5.94833 42.7386 6.451V10H41.4906V3.11H42.6866V4.969L42.4916 4.475C42.717 4.02433 43.0636 3.67333 43.5316 3.422C43.9996 3.17067 44.5456 3.045 45.1696 3.045ZM53.3553 12.6C52.7226 12.6 52.1073 12.509 51.5093 12.327C50.9199 12.1537 50.4389 11.9023 50.0663 11.573L50.6643 10.611C50.9849 10.8883 51.3793 11.105 51.8473 11.261C52.3153 11.4257 52.8049 11.508 53.3163 11.508C54.1309 11.508 54.7289 11.3173 55.1103 10.936C55.4916 10.5547 55.6823 9.974 55.6823 9.194V7.738L55.8123 6.373L55.7473 4.995V3.11H56.9303V9.064C56.9303 10.2773 56.6269 11.17 56.0202 11.742C55.4136 12.314 54.5253 12.6 53.3553 12.6ZM53.1993 9.714C52.5319 9.714 51.9339 9.57533 51.4053 9.298C50.8853 9.012 50.4693 8.61767 50.1573 8.115C49.8539 7.61233 49.7023 7.03167 49.7023 6.373C49.7023 5.70567 49.8539 5.125 50.1573 4.631C50.4693 4.12833 50.8853 3.73833 51.4053 3.461C51.9339 3.18367 52.5319 3.045 53.1993 3.045C53.7886 3.045 54.3259 3.16633 54.8113 3.409C55.2966 3.643 55.6823 4.007 55.9683 4.501C56.2629 4.995 56.4103 5.619 56.4103 6.373C56.4103 7.11833 56.2629 7.738 55.9683 8.232C55.6823 8.726 55.2966 9.09867 54.8113 9.35C54.3259 9.59267 53.7886 9.714 53.1993 9.714ZM53.3423 8.622C53.8016 8.622 54.2089 8.52667 54.5643 8.336C54.9196 8.14533 55.1969 7.881 55.3963 7.543C55.6043 7.205 55.7083 6.815 55.7083 6.373C55.7083 5.931 55.6043 5.541 55.3963 5.203C55.1969 4.865 54.9196 4.605 54.5643 4.423C54.2089 4.23233 53.8016 4.137 53.3423 4.137C52.8829 4.137 52.4713 4.23233 52.1073 4.423C51.7519 4.605 51.4703 4.865 51.2623 5.203C51.0629 5.541 50.9633 5.931 50.9633 6.373C50.9633 6.815 51.0629 7.205 51.2623 7.543C51.4703 7.881 51.7519 8.14533 52.1073 8.336C52.4713 8.52667 52.8829 8.622 53.3423 8.622ZM63.534 10V1.68L64.444 2.59H61.714V0.899999H65.64V10H63.534ZM67.3899 7.153V5.528H71.0689V7.153H67.3899ZM73.3602 10V1.68L74.2702 2.59H71.5402V0.899999H75.4662V10H73.3602ZM80.947 10.156C80.2017 10.156 79.5344 9.974 78.945 9.61C78.3557 9.23733 77.892 8.7 77.554 7.998C77.216 7.296 77.047 6.44667 77.047 5.45C77.047 4.45333 77.216 3.604 77.554 2.902C77.892 2.2 78.3557 1.667 78.945 1.303C79.5344 0.930333 80.2017 0.744 80.947 0.744C81.701 0.744 82.3684 0.930333 82.949 1.303C83.5384 1.667 84.002 2.2 84.34 2.902C84.678 3.604 84.847 4.45333 84.847 5.45C84.847 6.44667 84.678 7.296 84.34 7.998C84.002 8.7 83.5384 9.23733 82.949 9.61C82.3684 9.974 81.701 10.156 80.947 10.156ZM80.947 8.375C81.3024 8.375 81.61 8.27533 81.87 8.076C82.1387 7.87667 82.3467 7.56033 82.494 7.127C82.65 6.69367 82.728 6.13467 82.728 5.45C82.728 4.76533 82.65 4.20633 82.494 3.773C82.3467 3.33967 82.1387 3.02333 81.87 2.824C81.61 2.62467 81.3024 2.525 80.947 2.525C80.6004 2.525 80.2927 2.62467 80.024 2.824C79.764 3.02333 79.556 3.33967 79.4 3.773C79.2527 4.20633 79.179 4.76533 79.179 5.45C79.179 6.13467 79.2527 6.69367 79.4 7.127C79.556 7.56033 79.764 7.87667 80.024 8.076C80.2927 8.27533 80.6004 8.375 80.947 8.375ZM92.9885 10.078C92.2952 10.078 91.6798 9.92633 91.1425 9.623C90.6052 9.31967 90.1805 8.90367 89.8685 8.375C89.5565 7.83767 89.4005 7.231 89.4005 6.555C89.4005 5.87033 89.5565 5.26367 89.8685 4.735C90.1805 4.20633 90.6052 3.79467 91.1425 3.5C91.6798 3.19667 92.2952 3.045 92.9885 3.045C93.6732 3.045 94.2842 3.19667 94.8215 3.5C95.3675 3.79467 95.7922 4.20633 96.0955 4.735C96.4075 5.255 96.5635 5.86167 96.5635 6.555C96.5635 7.23967 96.4075 7.84633 96.0955 8.375C95.7922 8.90367 95.3675 9.31967 94.8215 9.623C94.2842 9.92633 93.6732 10.078 92.9885 10.078ZM92.9885 8.986C93.4305 8.986 93.8248 8.88633 94.1715 8.687C94.5268 8.48767 94.8042 8.206 95.0035 7.842C95.2028 7.46933 95.3025 7.04033 95.3025 6.555C95.3025 6.061 95.2028 5.63633 95.0035 5.281C94.8042 4.917 94.5268 4.63533 94.1715 4.436C93.8248 4.23667 93.4305 4.137 92.9885 4.137C92.5465 4.137 92.1522 4.23667 91.8055 4.436C91.4588 4.63533 91.1815 4.917 90.9735 5.281C90.7655 5.63633 90.6615 6.061 90.6615 6.555C90.6615 7.04033 90.7655 7.46933 90.9735 7.842C91.1815 8.206 91.4588 8.48767 91.8055 8.687C92.1522 8.88633 92.5465 8.986 92.9885 8.986ZM98.4714 10V2.499C98.4714 1.823 98.6664 1.28567 99.0564 0.887C99.4551 0.479666 100.018 0.276 100.746 0.276C101.015 0.276 101.271 0.310666 101.513 0.38C101.765 0.440666 101.977 0.540333 102.15 0.679L101.773 1.628C101.643 1.524 101.496 1.446 101.331 1.394C101.167 1.33333 100.993 1.303 100.811 1.303C100.447 1.303 100.17 1.407 99.9794 1.615C99.7888 1.81433 99.6934 2.11333 99.6934 2.512V3.435L99.7194 4.007V10H98.4714ZM97.3014 4.137V3.11H101.695V4.137H97.3014ZM108.782 10.156C108.149 10.156 107.521 10.0737 106.897 9.909C106.281 9.73567 105.753 9.493 105.311 9.181L106.143 7.569C106.489 7.82033 106.888 8.01967 107.339 8.167C107.798 8.31433 108.262 8.388 108.73 8.388C109.258 8.388 109.674 8.284 109.978 8.076C110.281 7.868 110.433 7.57767 110.433 7.205C110.433 6.971 110.372 6.763 110.251 6.581C110.129 6.399 109.913 6.26033 109.601 6.165C109.297 6.06967 108.868 6.022 108.314 6.022H105.987L106.455 0.899999H112.006V2.59H107.209L108.301 1.628L107.976 5.281L106.884 4.319H108.808C109.709 4.319 110.433 4.44467 110.979 4.696C111.533 4.93867 111.936 5.27233 112.188 5.697C112.439 6.12167 112.565 6.60267 112.565 7.14C112.565 7.67733 112.43 8.17567 112.162 8.635C111.893 9.08567 111.477 9.454 110.914 9.74C110.359 10.0173 109.648 10.156 108.782 10.156ZM113.315 8.089V6.672L117.605 0.899999H119.815L115.616 6.672L114.589 6.373H121.752V8.089H113.315ZM118.216 10V8.089L118.281 6.373V4.67H120.27V10H118.216Z" fill="#031F4F"/>
</svg>
