<svg width="30" height="39" viewBox="0 0 30 39" fill="none" xmlns="http://www.w3.org/2000/svg">
<path d="M8.33594 28L13.8079 20.896L13.7839 22.072L8.57594 15.28H11.1439L15.1279 20.512H14.1439L18.1279 15.28H20.6479L15.3679 22.12L15.3919 20.896L20.9119 28H18.2959L14.0959 22.432L15.0319 22.576L10.9039 28H8.33594Z" fill="black"/>
<path d="M17.3333 1V10.25C17.3333 11.5272 18.378 12.5625 19.6667 12.5625H29M17.7337 1H5.66667C3.08934 1 1 3.07068 1 5.625V33.375C1 35.9293 3.08934 38 5.66667 38H24.3333C26.9107 38 29 35.9293 29 33.375V12.1657C29 10.9391 28.5083 9.76273 27.6332 8.89537L21.0335 2.35463C20.1583 1.48728 18.9713 1 17.7337 1Z" stroke="black"/>
</svg>
