<svg width="866" height="30" viewBox="0 0 866 30" fill="none" xmlns="http://www.w3.org/2000/svg">
<line y1="29.5" x2="866" y2="29.5" stroke="#A38526"/>
<path d="M813.098 2.80369H807.412C805.528 2.80369 804 4.3312 804 6.21548V17.5882C804 19.4725 805.528 21 807.412 21H818.785C820.669 21 822.197 19.4725 822.197 17.5882L822.197 11.9018M809.686 15.3136L813.824 14.4799C814.044 14.4356 814.246 14.3274 814.404 14.1689L823.667 4.90116C824.111 4.45682 824.111 3.73657 823.666 3.2926L821.704 1.33264C821.26 0.888856 820.54 0.889158 820.096 1.33332L810.832 10.6021C810.674 10.7602 810.566 10.9615 810.522 11.1807L809.686 15.3136Z" stroke="black" stroke-width="2" stroke-linecap="round" stroke-linejoin="round"/>
<path d="M853.4 11.0292C853.4 12.3189 852.325 13.3645 851 13.3645C849.674 13.3645 848.6 12.3189 848.6 11.0292C848.6 9.73938 849.674 8.6938 851 8.6938C852.325 8.6938 853.4 9.73938 853.4 11.0292Z" stroke="black" stroke-width="2"/>
</svg>
