<svg width="40" height="38" viewBox="0 0 40 38" fill="none" xmlns="http://www.w3.org/2000/svg">
<mask id="path-1-inside-1_738_133" fill="white">
<path d="M15.6231 26.3345C15.4596 26.3352 15.2964 26.3356 15.1335 26.335C15.2182 26.3352 15.3022 26.3367 15.3871 26.3367C15.4655 26.3367 15.5445 26.3349 15.6231 26.3345Z"/>
</mask>
<path d="M15.6231 26.3345C15.4596 26.3352 15.2964 26.3356 15.1335 26.335C15.2182 26.3352 15.3022 26.3367 15.3871 26.3367C15.4655 26.3367 15.5445 26.3349 15.6231 26.3345Z" fill="#A3852F"/>
<path d="M15.6231 26.3345L15.6402 29.3345L15.6108 23.3345L15.6231 26.3345ZM15.1335 26.335L15.1415 23.335L15.1212 29.3349L15.1335 26.335ZM15.6108 23.3345C15.4491 23.3352 15.2959 23.3356 15.1459 23.335L15.1212 29.3349C15.2969 29.3357 15.4702 29.3352 15.6354 29.3345L15.6108 23.3345ZM15.1256 29.3349C15.1546 29.335 15.1844 29.3353 15.2305 29.3358C15.2722 29.3362 15.328 29.3367 15.3871 29.3367V23.3367C15.2271 23.3367 15.3701 23.3356 15.1415 23.335L15.1256 29.3349ZM15.3871 29.3367C15.4471 29.3367 15.5031 29.3361 15.5433 29.3355C15.589 29.335 15.6144 29.3346 15.6402 29.3345L15.6061 23.3346C15.424 23.3356 15.4895 23.3367 15.3871 23.3367V29.3367Z" fill="#A38526" mask="url(#path-1-inside-1_738_133)"/>
<mask id="path-3-inside-2_738_133" fill="white">
<path d="M25.0079 37.753H9.96255C6.69885 37.753 4.04358 35.0977 4.04358 31.834V27.0512C4.04358 26.8884 4.11438 26.7341 4.23768 26.628C4.36119 26.5217 4.52514 26.4741 4.68506 26.4991C8.39413 27.0582 11.9949 27.3416 15.3868 27.3416C21.0266 27.3416 26.0014 26.5514 30.1728 24.9928C30.3441 24.9285 30.536 24.9524 30.6865 25.0571C30.8369 25.1614 30.9266 25.3327 30.9266 25.5159V31.8338C30.9269 35.0977 28.2716 37.753 25.0079 37.753ZM5.16037 27.6974V31.834C5.16037 34.4819 7.31465 36.6362 9.96255 36.6362H25.0079C27.6558 36.6362 29.8101 34.4819 29.8101 31.834V26.3099C25.674 27.7361 20.8266 28.4586 15.387 28.4586C12.1356 28.4586 8.69812 28.2027 5.16037 27.6974Z"/>
</mask>
<path d="M25.0079 37.753H9.96255C6.69885 37.753 4.04358 35.0977 4.04358 31.834V27.0512C4.04358 26.8884 4.11438 26.7341 4.23768 26.628C4.36119 26.5217 4.52514 26.4741 4.68506 26.4991C8.39413 27.0582 11.9949 27.3416 15.3868 27.3416C21.0266 27.3416 26.0014 26.5514 30.1728 24.9928C30.3441 24.9285 30.536 24.9524 30.6865 25.0571C30.8369 25.1614 30.9266 25.3327 30.9266 25.5159V31.8338C30.9269 35.0977 28.2716 37.753 25.0079 37.753ZM5.16037 27.6974V31.834C5.16037 34.4819 7.31465 36.6362 9.96255 36.6362H25.0079C27.6558 36.6362 29.8101 34.4819 29.8101 31.834V26.3099C25.674 27.7361 20.8266 28.4586 15.387 28.4586C12.1356 28.4586 8.69812 28.2027 5.16037 27.6974Z" fill="#A3852F"/>
<path d="M4.23768 26.628L6.19446 28.902L6.19479 28.9017L4.23768 26.628ZM4.68506 26.4991L4.22142 29.4631L4.22967 29.4644L4.23792 29.4656L4.68506 26.4991ZM30.1728 24.9928L31.2228 27.803L31.2274 27.8013L30.1728 24.9928ZM30.6865 25.0571L28.973 27.5196L28.9762 27.5218L30.6865 25.0571ZM30.9266 31.8338H27.9266V31.834L30.9266 31.8338ZM5.16037 27.6974L5.5845 24.7276L2.16037 24.2385V27.6974H5.16037ZM29.8101 26.3099H32.8101V22.1022L28.8322 23.4738L29.8101 26.3099ZM25.0079 34.753H9.96255V40.753H25.0079V34.753ZM9.96255 34.753C8.35571 34.753 7.04358 33.4408 7.04358 31.834H1.04358C1.04358 36.7546 5.042 40.753 9.96255 40.753V34.753ZM7.04358 31.834V27.0512H1.04358V31.834H7.04358ZM7.04358 27.0512C7.04358 27.7617 6.7338 28.4379 6.19446 28.902L2.2809 24.354C1.49497 25.0303 1.04358 26.0151 1.04358 27.0512H7.04358ZM6.19479 28.9017C5.6625 29.3599 4.94469 29.5762 4.22142 29.4631L5.1487 23.5352C4.10559 23.372 3.05989 23.6835 2.28057 24.3543L6.19479 28.9017ZM4.23792 29.4656C8.0797 30.0447 11.8305 30.3416 15.3868 30.3416V24.3416C12.1593 24.3416 8.70856 24.0717 5.1322 23.5326L4.23792 29.4656ZM15.3868 30.3416C21.2936 30.3416 26.6394 29.5156 31.2228 27.803L29.1228 22.1825C25.3634 23.5872 20.7595 24.3416 15.3868 24.3416V30.3416ZM31.2274 27.8013C30.475 28.0838 29.632 27.9782 28.973 27.5196L32.4 22.5946C31.44 21.9266 30.2132 21.7731 29.1182 22.1842L31.2274 27.8013ZM28.9762 27.5218C28.3196 27.0662 27.9266 26.3171 27.9266 25.5159H33.9266C33.9266 24.3484 33.3541 23.2567 32.3968 22.5924L28.9762 27.5218ZM27.9266 25.5159V31.8338H33.9266V25.5159H27.9266ZM27.9266 31.834C27.9268 33.4409 26.6147 34.753 25.0079 34.753V40.753C29.9285 40.753 33.927 36.7545 33.9266 31.8336L27.9266 31.834ZM2.16037 27.6974V31.834H8.16037V27.6974H2.16037ZM2.16037 31.834C2.16037 36.1388 5.65779 39.6362 9.96255 39.6362V33.6362C8.9715 33.6362 8.16037 32.825 8.16037 31.834H2.16037ZM9.96255 39.6362H25.0079V33.6362H9.96255V39.6362ZM25.0079 39.6362C29.3127 39.6362 32.8101 36.1388 32.8101 31.834H26.8101C26.8101 32.825 25.9989 33.6362 25.0079 33.6362V39.6362ZM32.8101 31.834V26.3099H26.8101V31.834H32.8101ZM28.8322 23.4738C25.0763 24.7688 20.5713 25.4586 15.387 25.4586V31.4586C21.082 31.4586 26.2716 30.7033 30.788 29.1461L28.8322 23.4738ZM15.387 25.4586C12.2907 25.4586 8.9955 25.2147 5.5845 24.7276L4.73623 30.6673C8.40075 31.1906 11.9805 31.4586 15.387 31.4586V25.4586Z" fill="#A38526" mask="url(#path-3-inside-2_738_133)"/>
<mask id="path-5-inside-3_738_133" fill="white">
<path d="M13.2776 17.6207C13.1642 17.6207 13.0505 17.5863 12.9533 17.5168C10.7544 15.9479 9.36507 13.9659 9.307 13.8823L8.46762 12.6503L7.63919 13.8834C6.79378 15.1421 5.91018 16.2756 5.0134 17.2528C4.85749 17.4225 4.61359 17.4786 4.39939 17.3957C4.18496 17.3122 4.04358 17.1054 4.04358 16.8753V5.91897C4.04358 2.65527 6.69885 0 9.96255 0H25.0079C28.2716 0 30.9269 2.65527 30.9269 5.91897V7.42551C30.9269 7.61872 30.827 7.79807 30.6629 7.89992C30.4987 8.002 30.2934 8.0116 30.1205 7.92583L23.708 4.7488L23.272 5.6802C23.24 5.74877 19.9705 12.6574 13.6164 17.5059C13.5166 17.5825 13.3971 17.6207 13.2776 17.6207ZM8.46449 11.0953C8.64921 11.0953 8.82186 11.1866 8.92595 11.3394L10.2272 13.2493C10.2368 13.2634 11.4171 14.9471 13.2696 16.3623C19.1553 11.722 22.2298 5.27324 22.2606 5.20735L22.9383 3.75933C23.0019 3.6233 23.1176 3.51877 23.2595 3.46896C23.4011 3.41938 23.5567 3.42876 23.6917 3.49532L29.8103 6.52583V5.91919C29.8103 3.27129 27.656 1.11701 25.0081 1.11701H9.96277C7.31487 1.11701 5.16059 3.27129 5.16059 5.91919V15.3706C5.68727 14.7197 6.20657 14.0139 6.71248 13.2607L8.00125 11.3423C8.10466 11.1886 8.27754 11.0959 8.46293 11.0955C8.46293 11.0955 8.46382 11.0953 8.46449 11.0953Z"/>
</mask>
<path d="M13.2776 17.6207C13.1642 17.6207 13.0505 17.5863 12.9533 17.5168C10.7544 15.9479 9.36507 13.9659 9.307 13.8823L8.46762 12.6503L7.63919 13.8834C6.79378 15.1421 5.91018 16.2756 5.0134 17.2528C4.85749 17.4225 4.61359 17.4786 4.39939 17.3957C4.18496 17.3122 4.04358 17.1054 4.04358 16.8753V5.91897C4.04358 2.65527 6.69885 0 9.96255 0H25.0079C28.2716 0 30.9269 2.65527 30.9269 5.91897V7.42551C30.9269 7.61872 30.827 7.79807 30.6629 7.89992C30.4987 8.002 30.2934 8.0116 30.1205 7.92583L23.708 4.7488L23.272 5.6802C23.24 5.74877 19.9705 12.6574 13.6164 17.5059C13.5166 17.5825 13.3971 17.6207 13.2776 17.6207ZM8.46449 11.0953C8.64921 11.0953 8.82186 11.1866 8.92595 11.3394L10.2272 13.2493C10.2368 13.2634 11.4171 14.9471 13.2696 16.3623C19.1553 11.722 22.2298 5.27324 22.2606 5.20735L22.9383 3.75933C23.0019 3.6233 23.1176 3.51877 23.2595 3.46896C23.4011 3.41938 23.5567 3.42876 23.6917 3.49532L29.8103 6.52583V5.91919C29.8103 3.27129 27.656 1.11701 25.0081 1.11701H9.96277C7.31487 1.11701 5.16059 3.27129 5.16059 5.91919V15.3706C5.68727 14.7197 6.20657 14.0139 6.71248 13.2607L8.00125 11.3423C8.10466 11.1886 8.27754 11.0959 8.46293 11.0955C8.46293 11.0955 8.46382 11.0953 8.46449 11.0953Z" fill="#A3852F"/>
<path d="M12.9533 17.5168L14.6981 15.0764L14.6957 15.0746L12.9533 17.5168ZM9.307 13.8823L6.82771 15.5714L6.83567 15.5831L6.84374 15.5947L9.307 13.8823ZM8.46762 12.6503L10.9469 10.9612L8.45019 7.29648L5.97738 10.9773L8.46762 12.6503ZM7.63919 13.8834L5.14895 12.2105L5.14883 12.2107L7.63919 13.8834ZM5.0134 17.2528L7.22293 19.2821L7.2237 19.2812L5.0134 17.2528ZM4.39939 17.3957L3.31036 20.1911L3.31698 20.1937L4.39939 17.3957ZM30.6629 7.89992L29.0813 5.35068L29.0788 5.35223L30.6629 7.89992ZM30.1205 7.92583L31.4538 5.2384L31.4524 5.23766L30.1205 7.92583ZM23.708 4.7488L25.0398 2.06063L22.2913 0.69893L20.9909 3.47694L23.708 4.7488ZM23.272 5.6802L20.5549 4.40834L20.5525 4.41348L23.272 5.6802ZM13.6164 17.5059L11.7966 15.1209L11.7901 15.1258L13.6164 17.5059ZM8.92595 11.3394L6.44665 13.0285L6.44669 13.0286L8.92595 11.3394ZM10.2272 13.2493L7.74797 14.9385L7.74938 14.9406L10.2272 13.2493ZM13.2696 16.3623L11.4484 18.7462L13.2986 20.1596L15.1269 18.7181L13.2696 16.3623ZM22.2606 5.20735L19.5434 3.93574L19.5432 3.93617L22.2606 5.20735ZM22.9383 3.75933L25.6554 5.03094L25.6554 5.03091L22.9383 3.75933ZM23.2595 3.46896L22.268 0.637527L22.2654 0.638433L23.2595 3.46896ZM23.6917 3.49532L25.0232 0.806986L25.019 0.804946L23.6917 3.49532ZM29.8103 6.52583L28.4788 9.21415L32.8103 11.3595V6.52583H29.8103ZM5.16059 15.3706H2.16059V23.8471L7.4927 17.2577L5.16059 15.3706ZM6.71248 13.2607L4.22223 11.5878L4.22214 11.5879L6.71248 13.2607ZM8.00125 11.3423L5.51235 9.66737L5.511 9.66939L8.00125 11.3423ZM8.46293 11.0955L8.47016 14.0955L8.838 14.0946L9.19473 14.0049L8.46293 11.0955ZM13.2776 14.6207C13.7705 14.6207 14.2707 14.7708 14.6981 15.0764L11.2085 19.9572C11.8303 20.4017 12.5578 20.6207 13.2776 20.6207V14.6207ZM14.6957 15.0746C12.9147 13.804 11.7594 12.1543 11.7702 12.1699L6.84374 15.5947C6.97074 15.7774 8.59403 18.0919 11.2109 19.959L14.6957 15.0746ZM11.7863 12.1932L10.9469 10.9612L5.98833 14.3394L6.82771 15.5714L11.7863 12.1932ZM5.97738 10.9773L5.14895 12.2105L10.1294 15.5564L10.9579 14.3232L5.97738 10.9773ZM5.14883 12.2107C4.37622 13.3609 3.58467 14.3727 2.80309 15.2244L7.2237 19.2812C8.23568 18.1785 9.21134 16.9232 10.1295 15.5562L5.14883 12.2107ZM2.80387 15.2235C3.48743 14.4792 4.55153 14.2379 5.4818 14.5978L3.31698 20.1937C4.67565 20.7193 6.22755 20.3659 7.22293 19.2821L2.80387 15.2235ZM5.48841 14.6004C6.42608 14.9657 7.04358 15.8687 7.04358 16.8753H1.04358C1.04358 18.3421 1.94385 19.6587 3.31036 20.1911L5.48841 14.6004ZM7.04358 16.8753V5.91897H1.04358V16.8753H7.04358ZM7.04358 5.91897C7.04358 4.31213 8.35571 3 9.96255 3V-3C5.042 -3 1.04358 0.998418 1.04358 5.91897H7.04358ZM9.96255 3H25.0079V-3H9.96255V3ZM25.0079 3C26.6147 3 27.9269 4.31213 27.9269 5.91897H33.9269C33.9269 0.998418 29.9284 -3 25.0079 -3V3ZM27.9269 5.91897V7.42551H33.9269V5.91897H27.9269ZM27.9269 7.42551C27.9269 6.58034 28.3639 5.79575 29.0813 5.35068L32.2444 10.4492C33.2901 9.8004 33.9269 8.6571 33.9269 7.42551H27.9269ZM29.0788 5.35223C29.7988 4.90458 30.6973 4.86308 31.4538 5.2384L28.7872 10.6133C29.8895 11.1601 31.1986 11.0994 32.2469 10.4476L29.0788 5.35223ZM31.4524 5.23766L25.0398 2.06063L22.3761 7.43697L28.7887 10.614L31.4524 5.23766ZM20.9909 3.47694L20.5549 4.40834L25.989 6.95206L26.425 6.02066L20.9909 3.47694ZM20.5525 4.41348C20.5787 4.35732 17.5601 10.7231 11.7966 15.1209L15.4363 19.8908C22.381 14.5918 25.9014 7.14022 25.9914 6.94692L20.5525 4.41348ZM11.7901 15.1258C12.2312 14.7874 12.7583 14.6207 13.2776 14.6207V20.6207C14.0359 20.6207 14.8021 20.3775 15.4427 19.8859L11.7901 15.1258ZM8.46449 14.0953C7.65563 14.0953 6.90064 13.6949 6.44665 13.0285L11.4052 9.6503C10.7431 8.67838 9.64279 8.09527 8.46449 8.09527V14.0953ZM6.44669 13.0286L7.74798 14.9385L12.7065 11.5602L11.4052 9.65023L6.44669 13.0286ZM7.74938 14.9406C7.84576 15.0818 9.2364 17.0564 11.4484 18.7462L15.0908 13.9783C13.5977 12.8377 12.6279 11.445 12.7051 11.5581L7.74938 14.9406ZM15.1269 18.7181C21.5713 13.6375 24.8877 6.67157 24.978 6.47853L19.5432 3.93617C19.5719 3.87491 16.7393 9.80655 11.4122 14.0064L15.1269 18.7181ZM24.9778 6.47897L25.6554 5.03094L20.2211 2.48771L19.5434 3.93574L24.9778 6.47897ZM25.6554 5.03091C25.3766 5.62672 24.8703 6.0829 24.2535 6.2995L22.2654 0.638433C21.365 0.954648 20.6272 1.61988 20.2211 2.48774L25.6554 5.03091ZM24.2509 6.3004C23.6322 6.51703 22.9522 6.47577 22.3643 6.18569L25.019 0.804946C24.1613 0.381744 23.1699 0.321726 22.268 0.637528L24.2509 6.3004ZM22.3601 6.18364L28.4788 9.21415L31.1418 3.8375L25.0232 0.806989L22.3601 6.18364ZM32.8103 6.52583V5.91919H26.8103V6.52583H32.8103ZM32.8103 5.91919C32.8103 1.61444 29.3129 -1.88299 25.0081 -1.88299V4.11701C25.9992 4.11701 26.8103 4.92815 26.8103 5.91919H32.8103ZM25.0081 -1.88299H9.96277V4.11701H25.0081V-1.88299ZM9.96277 -1.88299C5.65802 -1.88299 2.16059 1.61444 2.16059 5.91919H8.16059C8.16059 4.92815 8.97173 4.11701 9.96277 4.11701V-1.88299ZM2.16059 5.91919V15.3706H8.16059V5.91919H2.16059ZM7.4927 17.2577C8.07942 16.5326 8.65119 15.7547 9.20282 14.9335L4.22214 11.5879C3.76195 12.273 3.29511 12.9068 2.82848 13.4834L7.4927 17.2577ZM9.20272 14.9336L10.4915 13.0152L5.511 9.66939L4.22223 11.5878L9.20272 14.9336ZM10.4901 13.0172C10.0397 13.6866 9.28449 14.0935 8.47016 14.0955L8.4557 8.09551C7.27059 8.09836 6.16963 8.69068 5.51235 9.66737L10.4901 13.0172ZM8.46293 11.0955C9.19473 14.0049 9.19448 14.0049 9.19422 14.005C9.19414 14.005 9.19389 14.0051 9.19372 14.0051C9.19338 14.0052 9.19304 14.0053 9.1927 14.0054C9.19202 14.0056 9.19134 14.0057 9.19066 14.0059C9.18929 14.0062 9.1879 14.0066 9.1865 14.0069C9.18371 14.0076 9.18085 14.0083 9.17793 14.009C9.1721 14.0105 9.166 14.012 9.15965 14.0135C9.147 14.0165 9.13298 14.0198 9.11773 14.0232C9.08826 14.0298 9.04936 14.038 9.00343 14.0464C8.95012 14.0561 8.73865 14.0953 8.46449 14.0953V8.09527C8.18966 8.09527 7.97741 8.13451 7.92348 8.14438C7.87725 8.15284 7.83808 8.16113 7.80842 8.16776C7.79308 8.17119 7.77898 8.17447 7.76629 8.1775C7.7599 8.17903 7.75378 8.18051 7.74794 8.18194C7.74502 8.18266 7.74216 8.18337 7.73935 8.18406C7.73795 8.18441 7.73657 8.18476 7.7352 8.1851C7.73451 8.18527 7.73383 8.18544 7.73315 8.18561C7.73281 8.1857 7.73247 8.18578 7.73214 8.18587C7.73197 8.18591 7.73171 8.18597 7.73163 8.186C7.73138 8.18606 7.73113 8.18612 8.46293 11.0955Z" fill="#A38526" mask="url(#path-5-inside-3_738_133)"/>
<path d="M5.88835 20.6014C5.9225 20.5911 5.95783 20.5804 5.99504 20.5691L6.00433 20.5662L6.00681 20.5655C6.11754 20.532 6.22213 20.4999 6.32397 20.4673C6.41017 20.4394 6.49778 20.4103 6.58724 20.38L6.58821 20.3797C6.69653 20.3432 6.80185 20.3071 6.90493 20.2706L6.90506 20.2705C6.98855 20.241 7.0745 20.2094 7.16694 20.1751L5.88835 20.6014ZM5.88835 20.6014C6.43313 20.0535 6.9632 19.4757 7.41705 18.9646C7.8772 18.4464 8.28269 17.9694 8.57944 17.6142L9.99298 18.8821C9.9394 18.9114 9.88665 18.9394 9.82509 18.9721C9.80484 18.9828 9.78364 18.9941 9.76114 19.006L9.75935 19.007C9.64897 19.0659 9.5457 19.1207 9.44459 19.1727C9.37513 19.2082 9.3054 19.2427 9.22546 19.2822C9.21475 19.2875 9.20386 19.2929 9.19276 19.2984L9.19069 19.2994C9.08227 19.3533 8.98147 19.403 8.883 19.4497L5.88835 20.6014ZM12.3194 19.2355C12.183 19.3244 12.0463 19.4131 11.9087 19.4989C11.9058 19.5007 11.9028 19.5025 11.8999 19.5043C11.8394 19.4239 11.7833 19.3296 11.7358 19.2218C11.7357 19.2216 11.7356 19.2213 11.7355 19.221C11.6798 19.0946 11.6359 18.9497 11.6102 18.787C11.6098 18.7847 11.6095 18.7824 11.6091 18.7801C11.5866 18.6341 11.5787 18.4738 11.5902 18.2997L11.8394 18.5233C11.8506 18.533 11.8617 18.5427 11.8728 18.5523L12.3194 19.2355ZM12.3194 19.2355C12.3445 19.2191 12.3698 19.203 12.3949 19.187C12.4036 19.1814 12.4123 19.1759 12.4209 19.1704L12.2611 18.895C12.1557 18.8004 12.0226 18.6828 11.8764 18.5554L12.3194 19.2355ZM7.47888 20.0567L7.48114 20.0558C7.56727 20.0224 7.65406 19.9879 7.74166 19.9523L7.74375 19.9514C7.84413 19.9108 7.94629 19.8682 8.05245 19.8231C8.14361 19.7844 8.22987 19.7474 8.31426 19.7103L8.91857 21.0831L8.31299 19.7108C8.41371 19.6664 8.51631 19.6198 8.62281 19.5709L8.62327 19.5707L7.47888 20.0567ZM7.47888 20.0567C7.37752 20.0962 7.2743 20.1352 7.16728 20.175L7.47888 20.0567ZM9.24893 20.934C9.3414 20.8915 9.43387 20.8486 9.52612 20.8049C9.63713 20.7521 9.74769 20.6976 9.85825 20.6427C9.86902 20.6374 9.87979 20.632 9.89056 20.6267C9.97003 20.5874 10.0495 20.5481 10.1287 20.5076C10.2413 20.4497 10.3537 20.3901 10.4658 20.3302C10.4847 20.3201 10.5037 20.3101 10.5227 20.3C10.5906 20.2639 10.6587 20.2278 10.7264 20.1906C10.8374 20.1299 10.9478 20.0669 11.0584 20.0038L9.24893 20.934ZM9.09948 16.9818C9.09954 16.9817 9.09959 16.9817 8.5816 16.5663L9.09962 16.9816C9.09958 16.9817 9.09953 16.9818 9.09948 16.9818ZM8.49989 16.5008C8.35029 16.3808 8.16337 16.231 7.92983 16.0437L8.49989 16.5008Z" fill="#A3852F" stroke="#A38526" stroke-width="3"/>
<path d="M6.25294 25.2535C6.3264 25.2344 6.39978 25.2148 6.47309 25.195C6.4731 25.195 6.47311 25.1949 6.47312 25.1949C6.63784 25.1503 6.80217 25.1038 6.96611 25.0554C6.96638 25.0554 6.96666 25.0553 6.96694 25.0552C7.07858 25.0223 7.19003 24.9885 7.3013 24.954M6.25294 25.2535L6.15542 23.7267C6.23492 23.7376 6.31125 23.7479 6.35022 23.7531L6.35347 23.7535C6.41447 23.7619 6.50232 23.7735 6.57973 23.7837C6.60813 23.7874 6.63512 23.791 6.65887 23.7942L6.65939 23.7942C6.73678 23.8045 7.02758 23.8414 7.11354 23.8519L7.11766 23.8524C7.20339 23.8632 7.34348 23.8803 7.42909 23.8907M6.25294 25.2535C6.21572 25.2486 6.18033 25.2438 6.15097 25.2398C6.0643 25.2282 5.77439 25.1889 5.69241 25.1771L6.25294 25.2535ZM7.3013 24.954L7.25078 25.3801L7.30244 24.9536M7.3013 24.954L7.42737 23.8905C7.42794 23.8906 7.42851 23.8907 7.42909 23.8907M7.3013 24.954C7.30168 24.9538 7.30206 24.9537 7.30244 24.9536M7.30244 24.9536C7.46983 24.9015 7.63679 24.8476 7.80333 24.7917C7.91719 24.7536 8.03085 24.7145 8.1443 24.6745C8.14498 24.6743 8.14565 24.6741 8.14633 24.6738C8.31604 24.614 8.4853 24.5523 8.65408 24.4885C8.65595 24.4878 8.65782 24.4871 8.65969 24.4864C8.77551 24.4426 8.89111 24.398 9.00649 24.3523M7.30244 24.9536L7.43116 23.891C7.43047 23.8909 7.42978 23.8908 7.42909 23.8907M9.00649 24.3523L8.88933 25.5586L9.00676 24.3522M9.00649 24.3523C9.00658 24.3523 9.00667 24.3523 9.00676 24.3522M9.00649 24.3523L9.03434 24.0656C9.03445 24.0656 9.03455 24.0656 9.03466 24.0656M9.00676 24.3522C9.18191 24.283 9.35655 24.2116 9.53066 24.138C9.54699 24.1311 9.56332 24.1242 9.57964 24.1173C9.56183 24.1157 9.54604 24.1142 9.53295 24.113C9.46169 24.1065 9.13564 24.0754 9.03466 24.0656M9.00676 24.3522L9.03466 24.0656M9.03466 24.0656C8.93379 24.0558 8.78656 24.0412 8.708 24.0328L8.708 24.0328L8.70033 24.032C8.61873 24.0237 8.30997 23.9911 8.22231 23.9815L8.21872 23.9811C8.13144 23.9718 7.98705 23.9556 7.90038 23.9457C7.81335 23.9357 7.51619 23.901 7.42909 23.8907M24.1779 23.6045L24.1908 23.6019L24.3624 23.5673L24.3633 23.5671C24.4916 23.5413 24.6214 23.5136 24.7591 23.484L24.7634 23.4831C24.9553 23.4425 25.1363 23.4032 25.3148 23.3624L24.1779 23.6045ZM24.1779 23.6045L23.7352 23.6864C23.6977 23.6933 23.5897 23.7133 23.4904 23.7319M24.1779 23.6045L23.4904 23.7319M23.4904 23.7319L23.4898 23.732L23.4089 23.7459L23.4076 23.7461L23.2232 23.778L23.2076 23.7807L22.7242 23.857C22.6838 23.8633 22.5871 23.8787 22.5035 23.8924L22.4427 23.9015L22.4395 23.902L22.2189 23.9345L22.1992 23.9374C21.9209 23.9738 21.6415 24.0107 21.5747 24.0197C21.5755 24.0196 21.5676 24.0206 21.5454 24.0233L21.4694 24.0326L21.2486 24.0591C21.0815 24.0789 20.9094 24.0989 20.8275 24.1076C20.6466 24.1269 20.4407 24.1478 20.3697 24.1544C20.287 24.1619 20.0239 24.1866 19.7737 24.21L19.753 24.212L19.7341 24.2135L19.5238 24.2301L19.5228 24.2301L19.4518 24.2358L19.4506 24.2359C19.4013 24.2393 19.3551 24.2424 19.3162 24.2452C19.2774 24.2478 19.2459 24.25 19.2256 24.2514C19.1865 24.2539 19.0232 24.2655 18.8426 24.2784L18.7405 24.2857L18.7385 24.2858L18.7205 24.2869L18.5482 24.2975L18.5415 24.2979L18.4622 24.3024L18.4572 24.3027C18.4569 24.3027 18.4565 24.3027 18.4562 24.3027C18.4561 24.3027 18.4561 24.3027 18.456 24.3027C18.456 24.3027 18.456 24.3027 18.456 24.3027C18.4552 24.3028 18.4544 24.3028 18.4537 24.3028C18.3487 24.3083 18.2341 24.3139 18.1984 24.3156L18.1984 24.3156L18.1893 24.3161C18.158 24.3178 17.9767 24.327 17.7737 24.3372L17.7514 24.3384L17.7357 24.339L17.5666 24.3456L17.5665 24.3456C17.4455 24.3504 17.325 24.3542 17.1974 24.3582C17.1771 24.3589 17.1566 24.3595 17.1358 24.3602L17.1352 24.3602C16.9511 24.3661 16.7706 24.3713 16.5915 24.3749L16.5906 24.3749C16.4455 24.378 16.3 24.3804 16.1531 24.3826C16.1528 24.3826 16.1524 24.3826 16.152 24.3826L15.9932 24.3847L15.9785 24.3849L15.9801 24.3849C15.9786 24.3849 15.977 24.3849 15.9754 24.3849C15.7724 24.3863 15.5438 24.3876 15.4632 24.3876L15.4593 24.3876C15.3778 24.3878 15.1911 24.3874 15.0445 24.3867M23.4904 23.7319L15.0452 24.3867C15.0449 24.3867 15.0447 24.3867 15.0445 24.3867M15.0445 24.3867C14.9016 24.3858 14.6272 24.3832 14.4338 24.3806C14.4322 24.3806 14.4306 24.3806 14.429 24.3805L14.433 24.3806L14.416 24.3803L14.2587 24.3771L14.2568 24.3771C14.2356 24.3767 14.2147 24.3763 14.1941 24.3759C14.0946 24.3741 14.0019 24.3724 13.9087 24.37L13.9079 24.37L13.7477 24.3659L13.7297 24.3654M15.0445 24.3867L13.7297 24.3654M13.7297 24.3654C13.531 24.359 13.2942 24.3511 13.202 24.348C13.1164 24.3451 12.7656 24.3309 12.664 24.3262C12.5571 24.3212 12.4063 24.3142 12.3278 24.3103L12.3278 24.3103L12.3194 24.3099C12.2501 24.3069 11.8641 24.286 11.7381 24.2786C11.7376 24.2785 11.7371 24.2785 11.7365 24.2785L11.6902 24.2757C11.5823 24.2691 11.469 24.2623 11.4212 24.2594L13.7297 24.3654ZM20.1181 25.6843C20.2968 25.6676 20.4515 25.6531 20.507 25.6481L20.1181 25.6843ZM20.1181 25.6843C20.1064 25.6848 20.0945 25.6855 20.0825 25.6862L20.1181 25.6843ZM14.4467 21.3989C14.647 21.2586 14.8429 21.1168 15.0347 20.9751C18.1767 18.6529 20.7316 15.6636 22.4859 13.2923C23.3679 12.1001 24.0586 11.049 24.5306 10.2929C24.7228 9.98494 24.879 9.72539 24.9975 9.5245L37.9089 15.9224C37.4586 16.39 36.8324 17.0199 36.1028 17.6981C34.57 19.1229 32.7047 20.6432 31.1005 21.4019C30.8345 21.5275 30.5564 21.6524 30.2506 21.783C30.2502 21.7832 30.2498 21.7834 30.2494 21.7835L30.2057 21.8021L30.0372 21.8699L30.0372 21.8699L30.0267 21.8742L29.5679 22.0629L29.559 22.0663L29.3786 22.1355L29.3765 22.1363L29.3048 22.164L29.0898 22.2423L29.0866 22.2434L28.6637 22.3991L28.6547 22.4022L28.488 22.4597L28.4862 22.4603L28.3943 22.4921L28.3923 22.4928L28.2413 22.5424L28.1846 22.561C28.1748 22.5642 28.1692 22.566 28.1667 22.5668C28.1648 22.5675 28.1647 22.5675 28.1659 22.5671L28.1509 22.5719L28.1361 22.5769C28.1384 22.5761 28.1305 22.5788 28.104 22.5875L28.0134 22.6173L27.7546 22.7023L27.7445 22.7055L27.5815 22.7557L27.579 22.7564C27.4639 22.7921 27.3477 22.8263 27.2193 22.8641L27.189 22.8731C27.1885 22.8732 27.1879 22.8734 27.1874 22.8735C27.0081 22.9259 26.8331 22.9762 26.6594 23.0239C26.5233 23.0612 26.3904 23.0968 26.258 23.131L26.2529 23.1324C26.0781 23.1782 25.9012 23.2223 25.7216 23.2659L25.7044 23.27C25.5677 23.303 25.4413 23.3334 25.3149 23.3624L14.4467 21.3989ZM26.4285 24.6361C26.4967 24.6188 26.5649 24.6012 26.6331 24.5834L26.4285 24.6361ZM25.0742 24.9506C25.1737 24.9295 25.2714 24.9086 25.3684 24.8874C25.3038 24.7057 25.1752 24.6036 25.0067 24.632C25.0064 24.632 25.0061 24.6321 25.0058 24.6321C24.9129 24.648 24.8079 24.7036 24.695 24.8074C24.7118 24.8884 24.7123 24.9639 24.6956 25.0303C24.8221 25.0046 24.9482 24.9777 25.0742 24.9506ZM25.2695 9.051C25.2694 9.05113 25.2694 9.05127 25.2693 9.05141C25.2694 9.05124 25.2695 9.05108 25.0259 8.91737L25.2695 9.051Z" fill="#A3852F" stroke="#A38526" stroke-width="3"/>
</svg>
