<svg width="30" height="39" viewBox="0 0 30 39" fill="none" xmlns="http://www.w3.org/2000/svg">
<path d="M21.3571 26.1989C19.9323 26.1154 18.5606 25.6977 17.4526 24.9458C15.2892 25.3216 13.2312 25.8646 11.1734 26.5331C9.53781 28.8304 8.00752 30 6.68835 30C6.42446 30 6.10806 29.9583 5.89695 29.8329C5.3164 29.6242 5 29.1646 5 28.7052C5 28.3292 5.10555 27.285 10.1181 25.5723C11.2792 23.9014 12.1759 22.1889 12.9148 20.3929C12.2814 19.3904 10.9098 16.9258 11.8592 15.6729C12.1759 15.2133 12.8092 14.9627 13.4953 15.0045C14.0228 15.0045 14.5503 15.2133 14.867 15.5474C15.5531 16.2993 15.5003 17.8866 14.6031 20.2258C15.4476 21.4771 16.5536 22.6069 17.8745 23.5675C18.9829 23.4002 20.0907 23.275 21.1987 23.275C23.6787 23.3166 24.0482 24.2356 23.9954 24.7787C23.9954 26.1989 22.254 26.1989 21.3571 26.1989ZM6.58306 28.7885L6.74139 28.7469C7.48001 28.5381 8.0603 28.1204 8.48252 27.5773C7.69086 27.8279 7.05779 28.2454 6.58306 28.7885ZM13.6006 16.2577H13.4423C13.3895 16.2577 13.284 16.2577 13.2312 16.2993C13.0201 17.0093 13.1784 17.7612 13.5478 18.4295C13.8645 17.7195 13.8645 16.9677 13.6006 16.2577ZM13.9701 22.3143L13.9173 22.3977L13.8645 22.356C13.3895 23.3168 12.8617 24.2775 12.2814 25.1964L12.387 25.1548V25.2381C13.5604 24.9022 14.7586 24.6233 15.9751 24.4027L15.9223 24.361H16.0806C15.289 23.7344 14.5503 23.0243 13.9701 22.3143ZM21.1459 24.5281C20.6709 24.5281 20.249 24.5281 19.774 24.6114C20.3018 24.8204 20.8295 24.9039 21.3571 24.9458C21.7265 24.9875 22.0959 24.9458 22.4123 24.8623C22.4123 24.7369 22.2012 24.5281 21.1459 24.5281Z" fill="black"/>
<path d="M17.3333 1V10.25C17.3333 11.5272 18.378 12.5625 19.6667 12.5625H29M17.7337 1H5.66667C3.08934 1 1 3.07068 1 5.625V33.375C1 35.9293 3.08934 38 5.66667 38H24.3333C26.9107 38 29 35.9293 29 33.375V12.1657C29 10.9391 28.5083 9.76273 27.6332 8.89537L21.0335 2.35463C20.1583 1.48728 18.9713 1 17.7337 1Z" stroke="black"/>
</svg>
