<svg width="20" height="19" viewBox="0 0 20 19" fill="none" xmlns="http://www.w3.org/2000/svg">
<path d="M19.0414 10.3431C18.949 10.6992 18.8153 11.0325 18.5495 11.3009C18.1595 11.6946 17.6836 11.8655 17.1367 11.8289C16.9404 11.8155 16.855 11.8794 16.8018 12.0676C16.7218 12.3519 16.5981 12.6238 16.4575 12.8843C16.3999 12.9912 16.4118 13.0551 16.5008 13.1344C16.8147 13.4157 17.0631 13.7406 17.1471 14.167C17.2594 14.7351 17.1481 15.2541 16.7581 15.6855C16.4391 16.0381 16.1028 16.3788 15.7476 16.6948C15.0486 17.3169 14.0376 17.2802 13.357 16.6314C13.0659 16.3536 13.0674 16.3575 12.6903 16.521C12.4638 16.619 12.2328 16.7072 11.9998 16.7889C11.9034 16.8231 11.8657 16.8677 11.8681 16.9731C11.8741 17.2317 11.8761 17.4902 11.7961 17.7433C11.5631 18.4812 10.9024 18.9755 10.1279 18.98C9.73143 18.9819 9.33498 18.9814 8.93854 18.98C7.96184 18.976 7.18933 18.2509 7.18635 17.2748C7.18535 16.9256 7.09196 16.7572 6.75414 16.676C6.52958 16.622 6.31745 16.5056 6.1088 16.3996C6.00497 16.3466 5.94585 16.363 5.87332 16.4427C5.58518 16.7587 5.2568 17.0123 4.82111 17.095C4.2647 17.201 3.7525 17.0984 3.32874 16.7225C2.95912 16.3947 2.60441 16.046 2.27702 15.6766C1.6759 14.999 1.71564 13.9981 2.33912 13.3345C2.43947 13.2275 2.61285 13.1458 2.62229 13.0091C2.63124 12.8853 2.51449 12.755 2.46034 12.6242C2.3729 12.4138 2.28149 12.2038 2.21095 11.9878C2.1712 11.867 2.11656 11.8229 1.98838 11.8308C1.51792 11.8601 1.07527 11.7764 0.694233 11.4767C0.249602 11.1271 0.0101465 10.6724 0.00319135 10.1048C-0.0017766 9.6913 -0.000286211 9.27726 0.00319135 8.86322C0.0106433 7.94847 0.746396 7.16695 1.66596 7.16497C2.0485 7.16398 2.24672 7.06542 2.32769 6.68753C2.37191 6.48101 2.48567 6.28687 2.58603 6.09619C2.64266 5.98872 2.63074 5.92483 2.54181 5.84608C2.24075 5.57913 1.99633 5.2691 1.90592 4.86794C1.77079 4.26966 1.88704 3.72239 2.30832 3.26675C2.61882 2.93096 2.94173 2.60459 3.28104 2.29802C3.97556 1.67052 4.992 1.69429 5.67212 2.33615C5.77495 2.43323 5.86835 2.59022 5.9846 2.61003C6.10035 2.62985 6.23846 2.50752 6.36912 2.45452C6.59218 2.36389 6.81524 2.27227 7.04277 2.19401C7.14164 2.15984 7.17641 2.11329 7.17393 2.00928C7.16846 1.76264 7.15853 1.51451 7.23404 1.27431C7.43723 0.627498 7.86994 0.218411 8.52571 0.0420973C8.5729 0.0292205 8.6191 0.0138674 8.6658 0C9.23612 0 9.80644 0 10.3763 0C10.4046 0.011391 10.4319 0.0267442 10.4612 0.0336779C11.1503 0.188695 11.5939 0.607687 11.807 1.27431C11.8835 1.51402 11.8746 1.76264 11.8676 2.00928C11.8647 2.11576 11.9049 2.15885 12.0008 2.19253C12.2338 2.27474 12.4628 2.36736 12.6913 2.46047C12.8165 2.51148 12.9477 2.62935 13.0585 2.61103C13.1697 2.59221 13.2592 2.44264 13.3575 2.34903C14.0486 1.69033 15.071 1.66656 15.7764 2.30991C16.1098 2.614 16.4292 2.93493 16.7342 3.26725C17.1486 3.71794 17.2678 4.25777 17.1391 4.8511C17.0502 5.26019 16.8053 5.57567 16.4998 5.84757C16.4108 5.92681 16.3999 5.99119 16.457 6.09767C16.5976 6.35818 16.7208 6.63008 16.8008 6.91436C16.854 7.10256 16.9399 7.16596 17.1357 7.15258C17.6677 7.11593 18.1347 7.27789 18.5222 7.65379C18.8034 7.92668 18.9455 8.2694 19.0399 8.63837V10.3436L19.0414 10.3431ZM1.11651 9.48081C1.11651 9.67248 1.11353 9.86415 1.11701 10.0553C1.12495 10.4515 1.39124 10.713 1.78768 10.716C2.03558 10.718 2.28348 10.715 2.53138 10.717C2.84734 10.7195 3.0396 10.8616 3.12654 11.1697C3.2875 11.7422 3.51156 12.2875 3.80814 12.804C3.97258 13.0903 3.93532 13.3181 3.70034 13.5583C3.53143 13.7307 3.35755 13.8981 3.18864 14.0704C2.89652 14.3676 2.89553 14.7232 3.18864 15.0203C3.44896 15.2848 3.71176 15.5473 3.97755 15.8068C4.27314 16.096 4.63183 16.0926 4.9309 15.8004C5.10825 15.6275 5.27965 15.4492 5.458 15.2774C5.68106 15.0624 5.91654 15.0258 6.1858 15.1788C6.71489 15.4799 7.27229 15.7082 7.8595 15.8702C8.14268 15.948 8.28774 16.15 8.29122 16.4442C8.2942 16.7037 8.28973 16.9632 8.29271 17.2228C8.29718 17.5779 8.54806 17.8527 8.90426 17.8646C9.31263 17.878 9.72248 17.877 10.1313 17.8651C10.495 17.8547 10.7479 17.5789 10.7518 17.2129C10.7543 16.9598 10.7508 16.7062 10.7528 16.4531C10.7558 16.1475 10.8989 15.9499 11.194 15.8682C11.7752 15.7078 12.3272 15.4824 12.8508 15.1833C13.13 15.0238 13.3605 15.0595 13.593 15.2843C13.7753 15.4606 13.9507 15.6444 14.1335 15.8202C14.4102 16.0861 14.7709 16.0906 15.0466 15.8256C15.3278 15.5557 15.6035 15.2798 15.8748 15C16.1416 14.7252 16.1396 14.3666 15.8743 14.0897C15.6989 13.9065 15.5141 13.7322 15.3373 13.5504C15.1097 13.3176 15.072 13.0888 15.2314 12.8115C15.531 12.2894 15.7575 11.7387 15.9195 11.1603C16.002 10.8651 16.1992 10.72 16.5037 10.717C16.7576 10.7145 17.012 10.718 17.2658 10.716C17.6419 10.7125 17.9161 10.456 17.9246 10.0826C17.934 9.68734 17.934 9.29163 17.9246 8.89641C17.9156 8.52347 17.6414 8.26792 17.2643 8.26495C17.0229 8.26296 16.7809 8.26494 16.539 8.26445C16.1942 8.26296 16.0069 8.12776 15.9145 7.80138C15.7541 7.23529 15.5325 6.69546 15.2399 6.18435C15.07 5.88768 15.1062 5.66432 15.3512 5.41619C15.525 5.23988 15.7044 5.06901 15.8753 4.89022C16.1401 4.61337 16.1406 4.2548 15.8738 3.97993C15.6065 3.70506 15.3338 3.43465 15.0591 3.16721C14.7699 2.88639 14.4107 2.89085 14.1191 3.17513C13.9373 3.35194 13.7624 3.53618 13.5786 3.711C13.361 3.91852 13.125 3.95566 12.8657 3.80659C12.3371 3.50299 11.7797 3.27468 11.1925 3.11273C10.8984 3.0315 10.7558 2.8329 10.7528 2.52634C10.7504 2.27326 10.7543 2.01968 10.7518 1.7666C10.7479 1.40011 10.495 1.12573 10.1304 1.11583C9.72149 1.10444 9.31213 1.10345 8.90327 1.11682C8.54806 1.12821 8.29718 1.40357 8.29271 1.75917C8.28973 2.01869 8.2942 2.27821 8.29122 2.53773C8.28774 2.83191 8.14218 3.03398 7.85901 3.11174C7.2718 3.27319 6.71439 3.50151 6.18531 3.80312C5.91555 3.95715 5.68255 3.9205 5.458 3.70357C5.27518 3.52776 5.09981 3.34401 4.91749 3.1677C4.63332 2.89283 4.27265 2.88936 3.99146 3.16225C3.71624 3.4292 3.44449 3.70011 3.17622 3.97448C2.9 4.25728 2.90149 4.61535 3.17622 4.89815C3.35308 5.07991 3.53739 5.25474 3.71375 5.43699C3.93184 5.66184 3.97159 5.89511 3.81808 6.16156C3.51503 6.68902 3.28502 7.24421 3.12306 7.8301C3.04208 8.12181 2.84138 8.26247 2.53188 8.26495C2.28398 8.26693 2.03608 8.26395 1.78817 8.26593C1.39074 8.26891 1.12545 8.52942 1.1175 8.92612C1.11402 9.11135 1.11701 9.29658 1.11701 9.4823L1.11651 9.48081Z" fill="black"/>
<path d="M13.668 9.48132C13.6814 11.7486 11.813 13.6182 9.52525 13.6252C7.2544 13.6321 5.39987 11.7932 5.37403 9.50806C5.3487 7.24768 7.21069 5.37708 9.50786 5.35528C11.7767 5.33399 13.6541 7.19568 13.668 9.48082V9.48132ZM9.52376 12.4999C11.1995 12.499 12.5423 11.1558 12.5398 9.4833C12.5373 7.82021 11.1965 6.48349 9.52823 6.48102C7.84956 6.47854 6.50375 7.81624 6.50275 9.48825C6.50176 11.1603 7.84708 12.5009 9.52376 12.4999Z" fill="black"/>
</svg>